<mxfile host="app.diagrams.net" agent="Mozilla/5.0 (Windows NT 10.0; Win64; x64) AppleWebKit/537.36 (KHTML, like Gecko) Chrome/131.0.0.0 Safari/537.36" version="25.0.1">
  <diagram name="หน้า-1" id="THrD0DZ61g8Ft0_Asqvl">
    <mxGraphModel dx="1050" dy="530" grid="1" gridSize="10" guides="1" tooltips="1" connect="1" arrows="1" fold="1" page="1" pageScale="1" pageWidth="827" pageHeight="1169" math="0" shadow="0">
      <root>
        <mxCell id="0" />
        <mxCell id="1" parent="0" />
        <mxCell id="-F8IaFFG8vs5g429Xk-H-3" value="" style="edgeStyle=orthogonalEdgeStyle;rounded=0;orthogonalLoop=1;jettySize=auto;html=1;" edge="1" parent="1" source="-F8IaFFG8vs5g429Xk-H-1" target="-F8IaFFG8vs5g429Xk-H-2">
          <mxGeometry relative="1" as="geometry" />
        </mxCell>
        <mxCell id="-F8IaFFG8vs5g429Xk-H-1" value="Start" style="ellipse;whiteSpace=wrap;html=1;" vertex="1" parent="1">
          <mxGeometry x="354" y="10" width="120" height="80" as="geometry" />
        </mxCell>
        <mxCell id="-F8IaFFG8vs5g429Xk-H-5" value="" style="edgeStyle=orthogonalEdgeStyle;rounded=0;orthogonalLoop=1;jettySize=auto;html=1;" edge="1" parent="1" source="-F8IaFFG8vs5g429Xk-H-2" target="-F8IaFFG8vs5g429Xk-H-4">
          <mxGeometry relative="1" as="geometry" />
        </mxCell>
        <mxCell id="-F8IaFFG8vs5g429Xk-H-2" value="Input Name1" style="shape=parallelogram;perimeter=parallelogramPerimeter;whiteSpace=wrap;html=1;fixedSize=1;" vertex="1" parent="1">
          <mxGeometry x="354" y="180" width="120" height="60" as="geometry" />
        </mxCell>
        <mxCell id="-F8IaFFG8vs5g429Xk-H-7" value="" style="edgeStyle=orthogonalEdgeStyle;rounded=0;orthogonalLoop=1;jettySize=auto;html=1;" edge="1" parent="1" source="-F8IaFFG8vs5g429Xk-H-4" target="-F8IaFFG8vs5g429Xk-H-6">
          <mxGeometry relative="1" as="geometry" />
        </mxCell>
        <mxCell id="-F8IaFFG8vs5g429Xk-H-4" value="Input Score1" style="shape=parallelogram;perimeter=parallelogramPerimeter;whiteSpace=wrap;html=1;fixedSize=1;" vertex="1" parent="1">
          <mxGeometry x="354" y="320" width="120" height="60" as="geometry" />
        </mxCell>
        <mxCell id="-F8IaFFG8vs5g429Xk-H-9" value="" style="edgeStyle=orthogonalEdgeStyle;rounded=0;orthogonalLoop=1;jettySize=auto;html=1;" edge="1" parent="1" source="-F8IaFFG8vs5g429Xk-H-6" target="-F8IaFFG8vs5g429Xk-H-8">
          <mxGeometry relative="1" as="geometry" />
        </mxCell>
        <mxCell id="-F8IaFFG8vs5g429Xk-H-6" value="Input Name2" style="shape=parallelogram;perimeter=parallelogramPerimeter;whiteSpace=wrap;html=1;fixedSize=1;" vertex="1" parent="1">
          <mxGeometry x="354" y="460" width="120" height="60" as="geometry" />
        </mxCell>
        <mxCell id="-F8IaFFG8vs5g429Xk-H-11" value="" style="edgeStyle=orthogonalEdgeStyle;rounded=0;orthogonalLoop=1;jettySize=auto;html=1;" edge="1" parent="1" source="-F8IaFFG8vs5g429Xk-H-8" target="-F8IaFFG8vs5g429Xk-H-10">
          <mxGeometry relative="1" as="geometry" />
        </mxCell>
        <mxCell id="-F8IaFFG8vs5g429Xk-H-8" value="Input Score2" style="shape=parallelogram;perimeter=parallelogramPerimeter;whiteSpace=wrap;html=1;fixedSize=1;" vertex="1" parent="1">
          <mxGeometry x="354" y="600" width="120" height="60" as="geometry" />
        </mxCell>
        <mxCell id="-F8IaFFG8vs5g429Xk-H-13" value="" style="edgeStyle=orthogonalEdgeStyle;rounded=0;orthogonalLoop=1;jettySize=auto;html=1;" edge="1" parent="1" source="-F8IaFFG8vs5g429Xk-H-10" target="-F8IaFFG8vs5g429Xk-H-12">
          <mxGeometry relative="1" as="geometry" />
        </mxCell>
        <mxCell id="-F8IaFFG8vs5g429Xk-H-10" value="Input Name3" style="shape=parallelogram;perimeter=parallelogramPerimeter;whiteSpace=wrap;html=1;fixedSize=1;" vertex="1" parent="1">
          <mxGeometry x="354" y="740" width="120" height="60" as="geometry" />
        </mxCell>
        <mxCell id="-F8IaFFG8vs5g429Xk-H-15" value="" style="edgeStyle=orthogonalEdgeStyle;rounded=0;orthogonalLoop=1;jettySize=auto;html=1;" edge="1" parent="1" source="-F8IaFFG8vs5g429Xk-H-12" target="-F8IaFFG8vs5g429Xk-H-14">
          <mxGeometry relative="1" as="geometry" />
        </mxCell>
        <mxCell id="-F8IaFFG8vs5g429Xk-H-12" value="Input Score3" style="shape=parallelogram;perimeter=parallelogramPerimeter;whiteSpace=wrap;html=1;fixedSize=1;" vertex="1" parent="1">
          <mxGeometry x="354" y="880" width="120" height="60" as="geometry" />
        </mxCell>
        <mxCell id="-F8IaFFG8vs5g429Xk-H-17" value="" style="edgeStyle=orthogonalEdgeStyle;rounded=0;orthogonalLoop=1;jettySize=auto;html=1;" edge="1" parent="1" source="-F8IaFFG8vs5g429Xk-H-14" target="-F8IaFFG8vs5g429Xk-H-16">
          <mxGeometry relative="1" as="geometry" />
        </mxCell>
        <mxCell id="-F8IaFFG8vs5g429Xk-H-14" value="Input Name4" style="shape=parallelogram;perimeter=parallelogramPerimeter;whiteSpace=wrap;html=1;fixedSize=1;" vertex="1" parent="1">
          <mxGeometry x="354" y="1020" width="120" height="60" as="geometry" />
        </mxCell>
        <mxCell id="-F8IaFFG8vs5g429Xk-H-21" value="" style="edgeStyle=orthogonalEdgeStyle;rounded=0;orthogonalLoop=1;jettySize=auto;html=1;" edge="1" parent="1" source="-F8IaFFG8vs5g429Xk-H-16" target="-F8IaFFG8vs5g429Xk-H-20">
          <mxGeometry relative="1" as="geometry" />
        </mxCell>
        <mxCell id="-F8IaFFG8vs5g429Xk-H-16" value="Input Score4" style="shape=parallelogram;perimeter=parallelogramPerimeter;whiteSpace=wrap;html=1;fixedSize=1;" vertex="1" parent="1">
          <mxGeometry x="354" y="1160" width="120" height="60" as="geometry" />
        </mxCell>
        <mxCell id="-F8IaFFG8vs5g429Xk-H-23" value="" style="edgeStyle=orthogonalEdgeStyle;rounded=0;orthogonalLoop=1;jettySize=auto;html=1;" edge="1" parent="1" source="-F8IaFFG8vs5g429Xk-H-20" target="-F8IaFFG8vs5g429Xk-H-22">
          <mxGeometry relative="1" as="geometry" />
        </mxCell>
        <mxCell id="-F8IaFFG8vs5g429Xk-H-20" value="Sort Name Highest Score &amp;gt; ... &amp;gt; Name Lowest Score" style="whiteSpace=wrap;html=1;" vertex="1" parent="1">
          <mxGeometry x="354" y="1300" width="120" height="60" as="geometry" />
        </mxCell>
        <mxCell id="-F8IaFFG8vs5g429Xk-H-25" value="" style="edgeStyle=orthogonalEdgeStyle;rounded=0;orthogonalLoop=1;jettySize=auto;html=1;" edge="1" parent="1" source="-F8IaFFG8vs5g429Xk-H-22" target="-F8IaFFG8vs5g429Xk-H-24">
          <mxGeometry relative="1" as="geometry" />
        </mxCell>
        <mxCell id="-F8IaFFG8vs5g429Xk-H-22" value="Output Name Highest Score &amp;gt; ... &amp;gt; Name Lowest Score" style="shape=parallelogram;perimeter=parallelogramPerimeter;whiteSpace=wrap;html=1;fixedSize=1;" vertex="1" parent="1">
          <mxGeometry x="306" y="1440" width="216" height="60" as="geometry" />
        </mxCell>
        <mxCell id="-F8IaFFG8vs5g429Xk-H-24" value="End" style="ellipse;whiteSpace=wrap;html=1;" vertex="1" parent="1">
          <mxGeometry x="354" y="1580" width="120" height="80" as="geometry" />
        </mxCell>
      </root>
    </mxGraphModel>
  </diagram>
</mxfile>
